# xmcd
#
# Track frame offsets:
#	150
#	13969
#	26581
#	39625
#	55051
#	69147
#	83848
#	99104
#	112265
#	126694
#	142846
#	157159
#	172314
#	185623
#	199309
#
# Disc length: 2848 seconds
#
# Revision: 1
# Processed by: cddbd v1.5.2PL0 Copyright (c) Steve Scherf et al.
# Submitted via: audiograbber 1.83.01
#
DISCID=da0b1e0f
DTITLE=Various Artist - She's Got the Blues - CD2
DYEAR=2005
DGENRE=Blues
TTITLE0=Ella Fitzgerald - Black Coffee
TTITLE1=Dinah Washington - Mad About the Boy
TTITLE2=Ruth Brown - Mama (He Treats Your Daughter Mean)
TTITLE3=Mamie Smith - Crazy Blues
TTITLE4=Peggy Lee - Don't Smoke in Bed
TTITLE5=Nina Simone - Backlash Blues
TTITLE6=Sarah Vaughan - Lover Man
TTITLE7=Victoria Spivey - You Done Lost Your Good Thing Now, Part 1
TTITLE8=Billie Holiday - Gloomy Sunday
TTITLE9=Rosemary Clooney - Blues Inthenight
TTITLE10=Bessie Smith - I Ain't Got Nobody
TTITLE11=Lena Horne - Stormy Weather
TTITLE12=Etta James - All I Could Do Was Cry
TTITLE13=Ma Rainey - Hear Me Talking to You
TTITLE14=Billie Holiday - I Cried for You
EXTD=
EXTT0=
EXTT1=
EXTT2=
EXTT3=
EXTT4=
EXTT5=
EXTT6=
EXTT7=
EXTT8=
EXTT9=
EXTT10=
EXTT11=
EXTT12=
EXTT13=
EXTT14=
PLAYORDER=
